<?xml version="1.0" standalone="no"?>
<!DOCTYPE svg PUBLIC "-//W3C//DTD SVG 20010904//EN"
 "http://www.w3.org/TR/2001/REC-SVG-20010904/DTD/svg10.dtd">
<svg version="1.0" xmlns="http://www.w3.org/2000/svg"
 width="192.000000pt" height="192.000000pt" viewBox="0 0 192.000000 192.000000"
 preserveAspectRatio="xMidYMid meet">
<metadata>
Created by potrace 1.11, written by Peter Selinger 2001-2013
</metadata>
<g transform="translate(0.000000,192.000000) scale(0.100000,-0.100000)"
fill="#000000" stroke="none">
<path d="M1030 1618 c-115 -24 -152 -38 -145 -56 4 -9 8 -24 9 -32 1 -8 6 -23
10 -32 4 -9 3 -26 -4 -37 -7 -15 -8 -27 0 -41 6 -11 8 -30 5 -42 -4 -16 2 -31
20 -50 14 -16 30 -28 34 -28 14 0 22 -32 12 -44 -12 -15 -11 -106 2 -123 5 -7
6 -21 3 -31 -5 -15 -1 -21 19 -26 16 -4 25 -13 25 -25 0 -12 19 -31 50 -51 27
-17 63 -47 79 -65 31 -36 67 -121 77 -184 4 -28 13 -42 31 -50 15 -7 23 -18
21 -29 -2 -9 7 -25 19 -35 26 -21 29 -37 11 -55 -7 -7 -13 -29 -14 -50 l-2
-37 29 35 c44 53 70 114 76 179 l6 59 39 6 c21 4 66 16 99 27 l59 21 146 -97
c168 -110 157 -120 95 90 l-38 129 42 52 c149 182 69 410 -187 538 -143 71
-222 88 -418 91 -91 2 -185 -1 -210 -7z m87 -180 l3 -23 -12 23 c-6 12 -22 25
-36 29 -74 18 -101 -106 -28 -132 24 -8 31 -6 51 17 22 26 23 26 23 4 0 -13
-6 -23 -12 -24 -6 -1 -25 -4 -43 -8 -62 -12 -109 76 -69 128 33 44 118 35 123
-14z m579 -26 c1 -34 4 -68 7 -76 4 -10 -2 -13 -18 -12 -15 0 -20 5 -14 11 14
14 11 132 -3 139 -7 3 -4 5 7 3 17 -2 20 -10 21 -65z m-266 44 c0 -11 -19 -15
-25 -6 -3 5 1 10 9 10 9 0 16 -2 16 -4z m74 -48 c8 -5 7 -8 -1 -8 -8 0 -13
-14 -13 -36 0 -30 3 -35 18 -29 13 5 14 3 5 -6 -22 -22 -43 -2 -43 40 0 47 11
83 18 60 3 -7 10 -17 16 -21z m-296 4 c6 -5 14 -26 16 -48 3 -37 2 -39 -25
-38 -47 2 -49 3 -49 19 0 9 13 22 29 28 22 10 28 16 21 27 -7 12 -12 12 -22 2
-6 -6 -17 -12 -22 -12 -6 0 -2 7 8 15 23 17 26 18 44 7z m134 -4 c26 -22 29
-47 7 -69 -13 -13 -27 -18 -41 -13 -19 6 -20 3 -16 -30 4 -33 2 -36 -22 -35
-14 0 -19 3 -12 6 8 3 12 27 12 68 0 41 -4 65 -12 69 -7 4 -3 4 8 2 12 -2 28
0 35 5 18 12 22 11 41 -3z m296 -35 c4 -25 -22 -53 -48 -53 -26 0 -52 29 -48
53 4 31 47 50 73 33 11 -7 21 -22 23 -33z m-212 -7 c1 -43 -1 -45 -34 -37 -2
1 0 7 5 14 12 19 13 40 1 54 -8 10 -6 13 9 13 16 0 19 -7 19 -44z m-303 -77
c-20 -7 -22 -14 -20 -71 l2 -63 30 2 c55 4 75 73 33 113 -12 11 -19 23 -15 26
3 3 17 -5 31 -19 18 -18 26 -37 26 -60 0 -49 -28 -70 -98 -74 -31 -1 -51 0
-44 3 14 7 17 125 3 140 -6 5 6 10 32 10 32 2 37 0 20 -7z m252 -55 c0 -74 5
-87 31 -82 30 5 31 56 2 67 l-23 10 22 0 c30 1 49 -34 34 -65 -9 -20 -17 -24
-48 -22 l-38 1 1 61 c1 34 -2 68 -7 76 -5 11 -2 16 9 17 14 1 17 -9 17 -63z
m255 -18 c0 -3 -4 -5 -9 -3 -10 2 -11 -1 -11 -37 0 -15 7 -27 18 -30 10 -3 6
-4 -8 -3 -21 2 -26 8 -31 44 -6 48 6 69 27 48 8 -7 14 -16 14 -19z m-312 -8
c3 -14 -3 -18 -28 -18 -25 0 -31 -4 -28 -17 2 -12 13 -18 32 -18 25 1 26 0 10
-12 -37 -27 -83 37 -53 73 16 20 63 14 67 -8z m227 -5 c4 -16 8 -35 9 -44 3
-12 -5 -16 -37 -15 -50 1 -58 20 -18 41 32 16 41 35 18 35 -7 0 -18 -5 -25
-12 -7 -7 -12 -8 -12 -2 0 17 11 24 36 24 18 0 25 -7 29 -27z m193 5 c3 -14
-3 -18 -28 -18 -25 0 -31 -4 -28 -17 2 -12 13 -18 30 -18 15 1 24 -3 22 -7 -8
-12 -49 -9 -62 4 -16 16 -15 51 0 66 18 18 62 11 66 -10z"/>
<path d="M1174 1359 c-3 -6 -2 -15 4 -21 7 -7 14 -3 21 11 10 17 9 21 -3 21
-8 0 -18 -5 -22 -11z"/>
<path d="M1303 1403 c-17 -6 -17 -60 0 -66 28 -11 51 25 35 56 -9 18 -14 19
-35 10z"/>
<path d="M1577 1399 c-20 -12 -22 -42 -3 -58 19 -16 46 -3 46 24 0 30 -20 46
-43 34z"/>
<path d="M1265 1210 c-3 -5 3 -10 14 -10 12 0 21 5 21 10 0 6 -6 10 -14 10 -8
0 -18 -4 -21 -10z"/>
<path d="M1513 1183 c-16 -6 -17 -33 -3 -33 11 0 26 28 19 34 -2 2 -10 1 -16
-1z"/>
<path d="M1685 1210 c-4 -6 5 -10 20 -10 15 0 24 4 20 10 -3 6 -12 10 -20 10
-8 0 -17 -4 -20 -10z"/>
<path d="M785 1539 c-169 -87 -257 -198 -267 -338 l-3 -43 -86 -22 c-46 -12
-90 -25 -96 -29 -6 -4 -75 35 -154 87 -79 51 -145 91 -146 87 -2 -3 17 -73 40
-155 l44 -148 -29 -32 c-16 -17 -41 -53 -56 -81 -37 -70 -38 -187 -3 -260 39
-80 135 -167 243 -219 86 -42 117 -51 91 -25 -9 9 -7 21 5 45 12 27 22 34 43
34 15 0 31 5 34 10 12 19 9 124 -3 128 -20 6 -14 46 9 60 13 8 19 20 16 32 -3
12 3 21 19 29 13 6 26 23 30 38 32 146 73 213 160 262 24 13 45 34 51 52 6 16
19 29 28 29 13 0 16 6 12 22 -4 12 -1 28 5 35 12 15 14 71 3 120 -7 28 -4 34
19 44 14 7 26 18 26 24 0 7 7 18 15 25 10 9 12 17 5 30 -5 9 -6 20 -3 24 4 4
8 36 8 71 1 36 7 70 14 79 21 25 -6 20 -74 -15z"/>
<path d="M865 1507 c-5 -24 -3 -43 3 -49 15 -15 23 21 13 57 l-8 30 -8 -38z"/>
<path d="M867 1424 c-4 -4 -7 -20 -7 -36 0 -16 -4 -37 -9 -47 -8 -15 -6 -17
19 -13 23 3 28 8 21 20 -5 8 -6 23 -4 33 6 20 -10 53 -20 43z"/>
<path d="M944 1282 c3 -5 -2 -19 -11 -32 -10 -15 -16 -39 -14 -62 2 -28 -1
-38 -12 -38 -8 0 -14 10 -14 23 -1 67 -3 75 -20 73 -15 -2 -18 -14 -20 -59
l-2 -57 35 0 c19 0 34 -3 34 -7 0 -5 -19 -8 -42 -8 -34 0 -43 -4 -46 -19 -3
-13 0 -16 10 -11 7 4 3 -2 -9 -14 -29 -28 -29 -34 2 -29 14 3 25 1 25 -3 0 -5
-24 -9 -54 -9 -54 0 -55 -1 -108 -59 -30 -33 -64 -81 -77 -106 -27 -54 -52
-143 -43 -149 4 -2 30 0 57 4 55 9 431 6 510 -5 28 -3 54 -10 59 -15 4 -4 -7
-6 -25 -4 -102 13 -235 20 -337 18 -102 -2 -212 -10 -218 -17 -1 -1 -4 -18 -6
-37 l-3 -34 45 4 c176 16 519 -5 585 -36 30 -14 29 -14 -18 -8 -27 3 -56 7
-65 9 -51 9 -184 18 -312 19 -152 2 -214 -4 -192 -17 15 -10 16 -119 1 -134
-8 -8 23 -9 113 -6 120 5 153 0 73 -11 -22 -3 -101 -8 -175 -12 -74 -3 -155
-9 -180 -14 -42 -8 -41 -9 15 -4 45 3 576 15 695 15 8 0 28 10 44 23 24 20 30
33 33 77 2 29 9 59 15 67 10 12 9 17 -10 30 -12 8 -22 23 -22 34 0 11 -9 22
-20 25 -11 3 -20 8 -21 12 -1 8 -10 53 -13 66 -30 120 -58 162 -141 216 -36
24 -65 51 -65 60 0 8 -12 21 -26 28 -20 9 -25 16 -20 35 3 13 3 26 -1 30 -10
9 -11 116 -1 122 12 7 10 34 -3 34 -5 0 -8 -4 -5 -8z m-64 -202 c0 -5 -2 -10
-4 -10 -3 0 -8 5 -11 10 -3 6 -1 10 4 10 6 0 11 -4 11 -10z m49 0 c-6 -5 -18
-6 -26 -3 -19 8 -16 11 13 11 17 0 22 -3 13 -8z m46 -52 c7 -8 6 -9 -3 -4 -7
4 -33 8 -57 8 -25 0 -43 3 -40 7 6 11 88 2 100 -11z m-219 -26 c-11 -18 -20
-111 -16 -157 1 -11 4 -14 7 -7 8 20 20 14 25 -13 5 -23 -2 -30 -24 -26 -5 0
-8 -13 -8 -29 0 -29 -1 -30 -51 -30 l-50 0 4 38 c4 39 8 49 39 121 18 43 64
111 74 111 3 0 3 -4 0 -8z m118 -175 c-3 -35 -4 -38 -14 -32 -15 9 -13 58 3
53 6 -3 11 -12 11 -21z m109 -18 c-7 -24 -28 -19 -29 7 -1 28 6 36 21 24 7 -6
11 -20 8 -31z m100 -15 c-3 -8 -11 -13 -17 -11 -11 4 -16 35 -8 51 8 14 31
-24 25 -40z m77 11 c0 -15 -6 -25 -14 -25 -16 0 -25 19 -18 38 8 22 32 13 32
-13z m-393 -130 c0 -9 -10 -15 -24 -15 -13 0 -22 5 -20 13 5 28 44 30 44 2z
m111 8 c-4 -24 -38 -26 -38 -2 0 13 7 19 21 19 14 0 19 -5 17 -17z m112 7 c0
-5 0 -13 0 -17 0 -16 -35 -7 -38 10 -2 12 3 17 17 17 12 0 21 -4 21 -10z
m-322 -17 c-5 -26 -38 -29 -38 -4 0 15 6 21 21 21 14 0 19 -5 17 -17z m430 5
c-7 -20 -48 -23 -48 -4 0 11 9 16 26 16 16 0 24 -5 22 -12z m87 -6 c20 -14 15
-32 -10 -32 -24 0 -34 18 -18 33 8 9 15 9 28 -1z m-279 -135 c-1 -30 -6 -42
-16 -42 -17 0 -22 72 -6 93 14 19 23 -2 22 -51z m-180 0 c1 -32 -3 -47 -12
-47 -14 0 -21 31 -15 73 6 44 26 25 27 -26z m85 43 c1 -5 1 -19 1 -30 0 -49
-3 -60 -16 -60 -9 0 -14 13 -14 42 -1 23 1 45 4 50 7 11 24 10 25 -2z m180 3
c8 -51 4 -93 -8 -93 -7 0 -14 8 -14 18 -6 74 -4 82 12 82 5 0 9 -3 10 -7z m85
-46 c1 -38 -2 -47 -16 -47 -11 0 -16 7 -14 23 1 12 3 35 3 50 2 49 26 25 27
-26z m84 -7 c0 -38 -4 -50 -15 -50 -15 0 -17 7 -17 55 0 41 1 45 17 45 11 0
15 -12 15 -50z m58 -7 c2 -39 0 -50 -13 -50 -16 0 -17 4 -17 37 0 58 3 71 15
68 7 -3 13 -26 15 -55z"/>
<path d="M766 403 c-1 -2 -32 -3 -69 -4 -60 -1 -67 -4 -67 -22 0 -11 -3 -17
-6 -14 -14 14 -44 -14 -43 -41 1 -21 2 -22 6 -7 3 11 9 24 14 29 11 12 40 -12
37 -32 -2 -9 6 -16 20 -18 18 -3 22 1 22 24 0 15 5 33 12 40 16 16 48 -13 48
-44 0 -31 34 -25 38 7 6 40 22 52 43 33 11 -10 19 -25 19 -36 0 -10 7 -18 15
-18 9 0 15 9 15 25 0 30 28 48 47 30 7 -8 13 -18 13 -24 0 -18 21 -12 40 11
15 18 20 20 33 10 12 -10 25 -9 69 8 115 43 107 46 -107 46 -108 -1 -198 -2
-199 -3z"/>
</g>
</svg>
